<?xml version="1.0" standalone="no"?>
<!DOCTYPE svg PUBLIC "-//W3C//DTD SVG 20010904//EN"
 "http://www.w3.org/TR/2001/REC-SVG-20010904/DTD/svg10.dtd">
<svg version="1.0" xmlns="http://www.w3.org/2000/svg"
 width="513.000000pt" height="226.000000pt" viewBox="0 0 513.000000 226.000000"
 preserveAspectRatio="xMidYMid meet">

<g transform="translate(0.000000,226.000000) scale(0.100000,-0.100000)"
fill="#000000" stroke="none">
<path d="M1098 1966 c-35 -18 -207 -117 -383 -219 -270 -155 -323 -190 -337
-218 -16 -31 -18 -74 -18 -464 0 -402 1 -432 19 -460 13 -21 77 -64 217 -144
110 -63 280 -161 379 -219 155 -89 185 -103 215 -99 22 3 177 87 404 218 280
162 373 220 387 243 18 29 19 58 19 466 -1 486 2 467 -72 512 -125 76 -687
398 -711 407 -41 16 -49 14 -119 -23z m436 -402 c3 -9 6 -179 6 -378 l0 -362
-124 -122 -123 -122 -234 2 -234 3 -3 380 -2 379 117 118 118 118 236 0 c207
0 238 -2 243 -16z"/>
<path d="M1080 1430 l0 -110 -110 0 -110 0 0 -350 0 -350 205 0 204 0 3 113 3
112 113 3 112 3 0 344 0 345 -210 0 -210 0 0 -110z m-142 -293 c3 -31 7 -37
27 -37 20 0 24 6 27 37 2 27 8 39 21 41 15 3 17 -6 17 -91 0 -51 -3 -96 -6
-100 -15 -14 -34 8 -34 39 0 29 -3 34 -24 34 -21 0 -25 -5 -28 -37 -2 -26 -8
-38 -18 -38 -12 0 -16 17 -18 84 -2 46 0 91 3 98 9 26 30 7 33 -30z m232 27
c0 -9 -9 -18 -20 -21 -18 -5 -20 -14 -20 -73 0 -44 -5 -71 -13 -79 -22 -17
-27 -3 -27 76 0 66 -2 73 -19 73 -11 0 -23 5 -26 10 -13 21 8 30 66 30 47 0
59 -3 59 -16z m62 -1 c17 -15 19 -15 36 0 36 33 42 22 42 -76 0 -52 -3 -97 -7
-100 -15 -16 -33 18 -33 65 0 39 -3 49 -14 45 -7 -3 -19 0 -25 6 -8 8 -11 -5
-11 -49 0 -66 -6 -80 -27 -63 -14 12 -19 169 -6 182 11 11 25 8 45 -10z m128
-63 l0 -80 46 0 c38 0 45 -3 42 -17 -2 -14 -15 -19 -51 -21 -70 -5 -77 5 -77
103 0 83 3 95 27 95 10 0 13 -20 13 -80z"/>
<path d="M960 1435 l-74 -75 77 0 77 0 0 75 c0 41 -1 75 -3 75 -1 0 -36 -34
-77 -75z"/>
<path d="M1310 733 l0 -77 75 74 c41 41 75 76 75 77 0 2 -34 3 -75 3 l-75 0 0
-77z"/>
<path d="M3890 1721 c0 -36 34 -79 76 -97 47 -20 177 -18 220 2 37 18 53 40
65 91 l7 33 -64 0 c-59 0 -65 -2 -73 -24 -17 -43 -86 -43 -97 0 -6 22 -11 24
-70 24 -64 0 -64 0 -64 -29z"/>
<path d="M2625 1566 c-95 -30 -153 -79 -193 -166 -35 -73 -37 -183 -5 -251 31
-69 85 -123 155 -155 121 -55 299 -31 379 52 l34 35 -60 53 -59 53 -37 -29
c-92 -74 -217 -28 -235 87 -8 60 0 89 39 132 55 60 154 57 211 -6 l18 -20 64
57 c61 54 63 57 46 75 -70 79 -243 119 -357 83z"/>
<path d="M3142 1293 c-66 -153 -124 -286 -127 -295 -7 -16 2 -18 93 -18 l100
0 17 50 17 50 114 0 115 0 21 -50 21 -50 98 0 c55 0 99 3 99 6 0 4 -57 137
-126 295 l-127 289 -97 0 -96 0 -122 -277z m249 -1 l27 -67 -55 -3 c-30 -2
-57 -1 -59 1 -3 2 8 36 23 75 15 39 30 69 33 66 3 -3 17 -36 31 -72z"/>
<path d="M3780 1275 l0 -295 93 0 94 0 101 153 102 152 0 -152 0 -153 100 0
100 0 0 295 0 295 -95 0 -95 0 -105 -157 -105 -158 0 158 0 157 -95 0 -95 0 0
-295z"/>
<path d="M4440 1495 l0 -75 85 0 85 0 0 -220 0 -220 95 0 95 0 2 218 3 217 88
3 87 3 0 74 0 75 -270 0 -270 0 0 -75z"/>
</g>
</svg>
